# xmcd
#
# Track frame offsets: 
#        150
#        24488
#        53134
#        89867
#        119266
#        147556
#        164642
#        191720
#        219923
#
# Disc length: 3379 seconds
#
# Revision: 1
# Processed by: cddbd v1.5.2PL0 Copyright (c) Steve Scherf et al.
# Submitted via: ExactAudioCopy v1.0b3
#
DISCID=880d3109
DTITLE=Brian Auger - Back To The Beginning. The Brian Auger Anthology
DYEAR=2015
DGENRE=Rock - Bluesrock
TTITLE0=Freedom Jazz Dance
TTITLE1=Whenever You're Ready
TTITLE2=Beginning Again [Live At The Whisky A Go Go '74]
TTITLE3=Somebody Help Us
TTITLE4=No Time To Live [feat. Julie Tippetts]
TTITLE5=Git Up [feat. Julie Tippetts]
TTITLE6=Butterfly [feat. Savannah Auger]
TTITLE7=Freddie's Flight
TTITLE8=Future Pilot [From Live In LA]
EXTD=
EXTT0=
EXTT1=
EXTT2=
EXTT3=
EXTT4=
EXTT5=
EXTT6=
EXTT7=
EXTT8=
PLAYORDER=
